<svg xmlns="http://www.w3.org/2000/svg" xmlns:xlink="http://www.w3.org/1999/xlink" width="500" zoomAndPan="magnify" viewBox="0 0 375 374.999991" height="500" preserveAspectRatio="xMidYMid meet" version="1.0"><defs><g/><clipPath id="8913e26989"><path d="M 74.800781 165.492188 L 194.496094 165.492188 L 194.496094 209.089844 L 74.800781 209.089844 Z M 74.800781 165.492188 " clip-rule="nonzero"/></clipPath><clipPath id="5eab204742"><path d="M 199 150 L 265 150 L 265 213 L 199 213 Z M 199 150 " clip-rule="nonzero"/></clipPath><clipPath id="44d3314512"><path d="M 212.109375 146.191406 L 267.285156 194.753906 L 243.992188 221.214844 L 188.820312 172.652344 Z M 212.109375 146.191406 " clip-rule="nonzero"/></clipPath><clipPath id="c8a34b9a1a"><path d="M 267.371094 194.832031 L 212.199219 146.269531 L 188.910156 172.730469 L 244.082031 221.289062 Z M 267.371094 194.832031 " clip-rule="nonzero"/></clipPath><clipPath id="9bd17dfdb1"><path d="M 267.371094 194.832031 L 212.199219 146.269531 L 188.910156 172.730469 L 244.082031 221.289062 Z M 267.371094 194.832031 " clip-rule="nonzero"/></clipPath></defs><g clip-path="url(#8913e26989)"><path fill="#1c2120" d="M 74.800781 165.492188 L 194.359375 165.492188 L 194.359375 209.082031 L 74.800781 209.082031 Z M 74.800781 165.492188 " fill-opacity="1" fill-rule="nonzero"/></g><g clip-path="url(#5eab204742)"><g clip-path="url(#44d3314512)"><g clip-path="url(#c8a34b9a1a)"><g clip-path="url(#9bd17dfdb1)"><path fill="#000000" d="M 248.039062 193.890625 C 246.894531 192.882812 245.480469 192.140625 243.882812 191.550781 C 242.53125 191.050781 239.566406 190.414062 234.945312 189.792969 C 234.878906 189.785156 234.816406 189.796875 234.765625 189.824219 C 234.753906 189.828125 234.742188 189.828125 234.734375 189.820312 L 234.734375 189.824219 C 233.910156 189.726562 233.136719 189.796875 232.535156 190.035156 C 231.652344 190.382812 231.121094 191.128906 231.515625 192.148438 C 231.660156 192.515625 231.976562 192.890625 232.316406 193.273438 L 232.335938 193.292969 L 235.269531 196.117188 C 235.269531 196.117188 235.273438 196.121094 235.273438 196.125 L 235.277344 196.125 C 237.050781 198.246094 238.050781 199.425781 238.246094 199.609375 C 238.25 199.613281 238.253906 199.617188 238.253906 199.625 C 238.265625 199.632812 238.277344 199.640625 238.292969 199.648438 L 238.300781 199.65625 C 238.632812 200.027344 238.976562 200.371094 239.328125 200.679688 C 241.101562 202.242188 243.125 202.992188 245.367188 202.667969 C 247.460938 202.367188 248.980469 201.195312 249.832031 199.46875 C 250.609375 197.902344 250.210938 196.25 248.84375 194.695312 C 248.59375 194.410156 248.324219 194.140625 248.039062 193.890625 Z M 209.808594 175.363281 Z M 209.808594 175.363281 L 209.804688 175.367188 Z M 215.984375 167.746094 C 215.742188 167.53125 215.5 167.335938 215.253906 167.15625 C 213.675781 165.996094 212.066406 165.445312 210.527344 165.894531 C 208.867188 166.378906 207.902344 167.765625 207.421875 169.644531 C 206.910156 171.640625 207.574219 173.417969 209.351562 174.984375 C 209.496094 175.109375 209.648438 175.238281 209.804688 175.359375 L 209.808594 175.363281 L 209.804688 175.359375 L 209.800781 175.367188 L 209.804688 175.367188 L 209.800781 175.367188 L 209.789062 175.386719 L 209.792969 175.386719 L 209.804688 175.367188 L 209.792969 175.386719 L 209.808594 175.367188 L 209.804688 175.367188 L 209.808594 175.367188 L 209.8125 175.363281 L 209.808594 175.363281 C 209.808594 175.363281 209.8125 175.363281 209.8125 175.363281 L 209.808594 175.363281 C 209.8125 175.367188 209.816406 175.367188 209.816406 175.371094 L 209.820312 175.371094 C 209.835938 175.382812 209.839844 175.386719 209.84375 175.390625 C 209.847656 175.390625 209.851562 175.398438 209.867188 175.410156 C 209.875 175.414062 209.875 175.417969 209.878906 175.417969 C 209.878906 175.417969 209.878906 175.417969 209.882812 175.421875 C 209.882812 175.421875 209.886719 175.425781 209.890625 175.425781 C 209.890625 175.425781 209.890625 175.429688 209.894531 175.429688 C 209.894531 175.429688 209.902344 175.4375 209.90625 175.441406 L 209.910156 175.441406 C 209.910156 175.441406 209.914062 175.445312 209.914062 175.445312 L 209.917969 175.445312 C 210.152344 175.632812 210.402344 175.824219 210.679688 175.988281 L 210.679688 175.992188 C 210.683594 175.992188 210.683594 175.992188 210.683594 175.992188 C 212.519531 177.082031 213.699219 177.835938 214.265625 178.234375 C 214.671875 178.519531 215.90625 179.449219 217.96875 181.070312 C 218.351562 181.371094 218.710938 181.578125 219.019531 181.734375 C 220.117188 182.296875 221.015625 181.890625 221.480469 180.984375 C 221.589844 180.769531 221.679688 180.527344 221.738281 180.269531 C 221.746094 180.230469 221.75 180.191406 221.742188 180.15625 L 221.746094 180.15625 C 221.738281 180.148438 221.738281 180.136719 221.742188 180.128906 L 221.742188 180.125 C 221.757812 180.089844 221.769531 180.046875 221.769531 180.003906 C 221.78125 178.367188 221.183594 175.992188 219.761719 173.003906 C 218.65625 170.679688 217.351562 168.949219 215.984375 167.746094 Z M 261.0625 189.375 C 263.476562 191.5 264.429688 193.523438 264.027344 195.371094 C 263.078125 199.695312 259.101562 204.105469 251.984375 208.25 C 243.570312 213.152344 237.828125 213.941406 234.488281 211.789062 C 233.351562 211.054688 232.335938 210.320312 231.460938 209.550781 C 230.246094 208.484375 229.300781 207.34375 228.671875 206.03125 C 228.65625 205.996094 228.628906 205.964844 228.601562 205.9375 C 227.859375 205.261719 226.890625 201.3125 225.265625 193.84375 C 224.953125 192.402344 224.160156 191.332031 223.351562 190.546875 C 223.289062 190.488281 223.226562 190.425781 223.160156 190.371094 C 222.335938 189.644531 221.277344 189.164062 220.046875 188.882812 L 220 188.875 L 210.21875 188.175781 L 210.210938 188.171875 C 208.222656 187.882812 206.578125 187.316406 205.21875 186.574219 C 204.441406 186.148438 203.730469 185.65625 203.089844 185.09375 C 200.898438 183.164062 199.550781 180.421875 199.253906 176.777344 C 198.730469 170.429688 200.109375 164.210938 203.328125 158.304688 C 206.160156 153.101562 209.882812 150.355469 214.183594 150.316406 C 215.5 150.304688 216.839844 150.914062 218.1875 152.101562 C 219.292969 153.074219 220.410156 154.4375 221.53125 156.167969 C 222.171875 157.15625 222.796875 158.304688 223.277344 159.644531 C 225.261719 165.199219 226.652344 169.0625 227.59375 171.15625 C 228.808594 173.867188 230.058594 176.296875 231.382812 178.425781 C 231.382812 178.429688 231.386719 178.433594 231.386719 178.4375 C 231.402344 178.460938 231.417969 178.480469 231.4375 178.5 C 231.949219 179.027344 232.488281 179.558594 233.0625 180.066406 C 234.300781 181.152344 235.6875 182.105469 237.28125 182.539062 L 237.328125 182.550781 L 250.425781 184.171875 C 252.878906 184.667969 254.984375 185.335938 256.675781 186.316406 C 258.472656 187.355469 259.929688 188.378906 261.0625 189.375 Z M 261.0625 189.375 " fill-opacity="0.9961" fill-rule="nonzero"/></g></g></g></g><g fill="#ffffff" fill-opacity="1"><g transform="translate(98.229236, 194.184333)"><g><path d="M 17.824219 -10.324219 L 20.417969 -10.324219 C 20.417969 -14.136719 16.957031 -15.484375 11.492188 -15.484375 C 5.007812 -15.484375 2.058594 -13.984375 2.058594 -11.1875 L 2.058594 -10.984375 C 2.058594 -7.550781 4.832031 -7.09375 10.933594 -6.457031 C 17.570312 -5.847656 17.59375 -4.933594 17.59375 -4.527344 L 17.59375 -4.21875 C 17.59375 -2.441406 13.78125 -2.289062 10.957031 -2.289062 C 6.636719 -2.289062 4.628906 -3.433594 4.628906 -5.261719 L 2.035156 -5.261719 C 2.035156 -1.855469 4.984375 0.253906 10.957031 0.253906 C 17.339844 0.253906 20.265625 -0.941406 20.265625 -4.296875 L 20.265625 -4.550781 C 20.265625 -8.007812 16.855469 -8.492188 11.085938 -9.027344 C 4.753906 -9.609375 4.730469 -10.398438 4.730469 -11.007812 L 4.730469 -11.238281 C 4.730469 -12.457031 7.882812 -12.941406 11.492188 -12.941406 C 15.101562 -12.941406 17.824219 -12.28125 17.824219 -10.324219 Z M 17.824219 -10.324219 "/></g></g></g><g fill="#ffffff" fill-opacity="1"><g transform="translate(120.673365, 194.184333)"><g><path d="M 12.355469 0.253906 C 19.246094 0.253906 22.019531 -2.492188 22.527344 -5.71875 L 19.703125 -5.71875 C 19.144531 -3.738281 17.058594 -2.289062 12.355469 -2.289062 C 6.839844 -2.289062 4.679688 -4.375 4.679688 -7.398438 L 4.679688 -7.933594 C 4.679688 -10.957031 6.839844 -13.042969 12.355469 -13.042969 C 16.578125 -13.042969 19.425781 -11.542969 19.730469 -9.761719 L 22.550781 -9.761719 C 22.324219 -12.8125 18.761719 -15.585938 12.355469 -15.585938 C 4.5 -15.585938 2.035156 -11.949219 2.035156 -7.933594 L 2.035156 -7.398438 C 2.035156 -3.382812 4.5 0.253906 12.355469 0.253906 Z M 12.355469 0.253906 "/></g></g></g><g fill="#ffffff" fill-opacity="1"><g transform="translate(145.32887, 194.184333)"><g><path d="M 16.832031 0 L 19.804688 0 L 11.464844 -15.179688 L 11.492188 -15.253906 L 8.441406 -15.253906 L 8.492188 -15.179688 L 0.128906 0 L 3.101562 0 L 4.601562 -2.71875 L 15.332031 -2.71875 Z M 6 -5.261719 L 9.964844 -12.484375 L 13.933594 -5.261719 Z M 6 -5.261719 "/></g></g></g><g fill="#ffffff" fill-opacity="1"><g transform="translate(165.256614, 194.184333)"><g><path d="M 26.085938 -15.253906 L 22.398438 -15.253906 L 14.570312 -2.542969 L 6.839844 -15.253906 L 3.152344 -15.253906 L 3.152344 0 L 5.746094 0 L 5.746094 -12.027344 L 13.042969 -0.0507812 L 12.992188 0 L 16.121094 0 L 16.09375 -0.0507812 L 23.492188 -12.078125 L 23.492188 0 L 26.085938 0 Z M 26.085938 -15.253906 "/></g></g></g><g fill="#1c2120" fill-opacity="1"><g transform="translate(147.651806, 233.062559)"><g><path d="M 17.539062 -10.15625 L 20.089844 -10.15625 C 20.089844 -13.910156 16.6875 -15.238281 11.308594 -15.238281 C 4.929688 -15.238281 2.027344 -13.761719 2.027344 -11.007812 L 2.027344 -10.808594 C 2.027344 -7.429688 4.753906 -6.980469 10.757812 -6.355469 C 17.289062 -5.753906 17.3125 -4.855469 17.3125 -4.453125 L 17.3125 -4.152344 C 17.3125 -2.402344 13.5625 -2.25 10.785156 -2.25 C 6.53125 -2.25 4.554688 -3.378906 4.554688 -5.179688 L 2 -5.179688 C 2 -1.828125 4.902344 0.25 10.785156 0.25 C 17.0625 0.25 19.941406 -0.925781 19.941406 -4.226562 L 19.941406 -4.480469 C 19.941406 -7.882812 16.589844 -8.355469 10.910156 -8.882812 C 4.679688 -9.457031 4.652344 -10.234375 4.652344 -10.832031 L 4.652344 -11.058594 C 4.652344 -12.261719 7.757812 -12.734375 11.308594 -12.734375 C 14.863281 -12.734375 17.539062 -12.085938 17.539062 -10.15625 Z M 17.539062 -10.15625 "/></g></g></g><g fill="#1c2120" fill-opacity="1"><g transform="translate(169.743994, 233.062559)"><g><path d="M 18.914062 -12.734375 L 18.914062 -15.011719 L 3.101562 -15.011719 L 3.101562 0 L 18.914062 0 L 18.914062 -2.277344 L 5.65625 -2.277344 L 5.65625 -6.179688 L 17.363281 -6.179688 L 17.363281 -8.457031 L 5.65625 -8.457031 L 5.65625 -12.734375 Z M 18.914062 -12.734375 "/></g></g></g><g fill="#1c2120" fill-opacity="1"><g transform="translate(190.184892, 233.062559)"><g><path d="M 5.628906 -15.011719 L 3.078125 -15.011719 L 3.078125 0 L 18.140625 0 L 18.140625 -2.402344 L 5.628906 -2.402344 Z M 5.628906 -15.011719 "/></g></g></g><g fill="#1c2120" fill-opacity="1"><g transform="translate(209.32478, 233.062559)"><g><path d="M 5.628906 -15.011719 L 3.078125 -15.011719 L 3.078125 0 L 18.140625 0 L 18.140625 -2.402344 L 5.628906 -2.402344 Z M 5.628906 -15.011719 "/></g></g></g><g fill="#1c2120" fill-opacity="1"><g transform="translate(228.464667, 233.062559)"><g><path d="M 18.914062 -12.734375 L 18.914062 -15.011719 L 3.101562 -15.011719 L 3.101562 0 L 18.914062 0 L 18.914062 -2.277344 L 5.65625 -2.277344 L 5.65625 -6.179688 L 17.363281 -6.179688 L 17.363281 -8.457031 L 5.65625 -8.457031 L 5.65625 -12.734375 Z M 18.914062 -12.734375 "/></g></g></g><g fill="#1c2120" fill-opacity="1"><g transform="translate(248.905565, 233.062559)"><g><path d="M 20.867188 -10.632812 L 20.867188 -10.910156 C 20.867188 -13.609375 19.117188 -15.011719 16.1875 -15.011719 L 3.101562 -15.011719 L 3.101562 0 L 5.828125 0 L 5.828125 -5.804688 L 15.136719 -5.804688 C 17.664062 -5.804688 17.664062 -4.253906 17.664062 -3.078125 L 17.664062 -1.402344 C 17.664062 -0.949219 17.6875 -0.449219 17.765625 0 L 20.691406 0 C 20.617188 -0.449219 20.566406 -0.949219 20.566406 -1.5 L 20.566406 -3.277344 C 20.566406 -4.828125 19.941406 -6.179688 18.488281 -6.980469 C 19.914062 -7.429688 20.867188 -8.457031 20.867188 -10.632812 Z M 5.828125 -8.480469 L 5.828125 -12.511719 L 16.1875 -12.511719 C 17.890625 -12.511719 18.265625 -11.632812 18.265625 -10.910156 L 18.265625 -10.632812 C 18.265625 -9.457031 17.613281 -8.480469 16.1875 -8.480469 Z M 5.828125 -8.480469 "/></g></g></g><g fill="#1c2120" fill-opacity="1"><g transform="translate(271.648258, 233.062559)"><g><path d="M 3.578125 0 C 4.480469 0 4.980469 -0.425781 4.980469 -1.074219 L 4.980469 -1.226562 C 4.980469 -1.953125 4.480469 -2.277344 3.578125 -2.277344 C 2.675781 -2.277344 2.203125 -1.953125 2.203125 -1.226562 L 2.203125 -1.050781 C 2.203125 -0.425781 2.675781 0 3.578125 0 Z M 3.578125 0 "/></g></g></g></svg>